<?xml version="1.0" encoding="UTF-8" standalone="no"?>
<!-- Generator: Adobe Illustrator 23.0.3, SVG Export Plug-In . SVG Version: 6.00 Build 0)  -->
<svg id="Layer_1" xmlns:rdf="http://www.w3.org/1999/02/22-rdf-syntax-ns#" style="enable-background:new 0 0 250 250" xmlns="http://www.w3.org/2000/svg" xml:space="preserve" viewBox="0 0 250 250" version="1.1" xmlns:xlink="http://www.w3.org/1999/xlink" y="0px" x="0px" xmlns:cc="http://creativecommons.org/ns#" xmlns:dc="http://purl.org/dc/elements/1.1/">
<style type="text/css">
	.st0{fill:#A4C639;}
</style>
<g id="g4602" transform="matrix(1.4171 0 0 1.4171 -1808.8 -2167.4)">
	<path id="path6-5" d="m1393.1 1643.4v-45.2h-56.9v45.2c0 3.6 2.5 6.4 6.1 6.4h4.7c-0.2 0.4 0.1 1.2 0.1 1.8v13.1c0 3.4 2.5 6.2 5.9 6.2s5.9-2.8 5.9-6.2v-13.1c0-0.6 0.1-1.4 0-1.8h11.5c-0.2 0.4-0.1 1.2-0.1 1.8v13.1c0 3.4 2.5 6.2 5.9 6.2s5.9-2.8 5.9-6.2v-13.1c0-0.6 0.3-1.4 0.2-1.8h4.7c3.6 0 6.1-2.8 6.1-6.4z" class="st0"/>
	<path id="path8" d="m1397.9 1604.3v26.5c0 3.4 2.5 6.2 5.9 6.2s5.9-2.8 5.9-6.2v-26.5c0-3.4-2.5-6.2-5.9-6.2s-5.9 2.8-5.9 6.2z" class="st0"/>
	<path id="path10" d="m1325.5 1636.9c3.4 0 5.9-2.8 5.9-6.2v-26.5c0-3.4-2.5-6.2-5.9-6.2s-5.9 2.8-5.9 6.2v26.5c0 3.4 2.5 6.2 5.9 6.2z" class="st0"/>
	<path id="path12" d="m1381.2 1569.9l2.6-3.9c0.3-0.5 0.2-1.1-0.3-1.4s-1.1-0.2-1.4 0.3l-2.8 4.1-1.2 1.7-1.2 1.8c-3.7-1.4-7.9-2.3-12.3-2.3s-8.5 0.8-12.3 2.3l-1.2-1.8-1.2-1.7-2.8-4.1c-0.3-0.5-1-0.6-1.4-0.3-0.5 0.3-0.6 1-0.3 1.4l2.6 3.9 1.2 1.7 1.2 1.7c-8.8 4.1-14.7 11.8-14.7 20.6h57.7c0-8.8-5.9-16.5-14.7-20.6l1.2-1.7 1.3-1.7zm-28.9 15.8c-1.7 0-3.1-1.4-3.1-3.1s1.4-3.1 3.1-3.1 3.1 1.4 3.1 3.1-1.4 3.1-3.1 3.1zm27.8-3.1c0 1.7-1.4 3.1-3.1 3.1s-3.1-1.4-3.1-3.1c0-1.7 1.4-3.1 3.1-3.1s3.1 1.4 3.1 3.1z" class="st0"/>
</g>
</svg>
