<svg xmlns="http://www.w3.org/2000/svg" width="800" height="500" viewBox="0 0 800 500">
  <defs>
    <linearGradient id="featGrad" x1="0%" y1="0%" x2="100%" y2="100%">
      <stop offset="0%" style="stop-color:#667eea;stop-opacity:1" />
      <stop offset="100%" style="stop-color:#764ba2;stop-opacity:1" />
    </linearGradient>
  </defs>
  <rect width="800" height="500" fill="url(#featGrad)"/>
  
  <!-- Background circles -->
  <circle cx="150" cy="400" r="120" fill="rgba(255,255,255,0.1)"/>
  <circle cx="650" cy="100" r="140" fill="rgba(255,255,255,0.08)"/>
  <circle cx="400" cy="250" r="90" fill="rgba(255,255,255,0.12)"/>
  
  <!-- AI Brain -->
  <circle cx="400" cy="200" r="80" fill="rgba(255,255,255,0.2)"/>
  <circle cx="380" cy="190" r="12" fill="rgba(255,255,255,0.4)"/>
  <circle cx="420" cy="190" r="12" fill="rgba(255,255,255,0.4)"/>
  <path d="M 370 220 Q 400 240 430 220" stroke="rgba(255,255,255,0.4)" stroke-width="4" fill="none"/>
  
  <!-- Neural connections -->
  <line x1="320" y1="200" x2="280" y2="180" stroke="rgba(255,255,255,0.3)" stroke-width="3"/>
  <line x1="320" y1="200" x2="280" y2="220" stroke="rgba(255,255,255,0.3)" stroke-width="3"/>
  <line x1="480" y1="200" x2="520" y2="180" stroke="rgba(255,255,255,0.3)" stroke-width="3"/>
  <line x1="480" y1="200" x2="520" y2="220" stroke="rgba(255,255,255,0.3)" stroke-width="3"/>
  
  <circle cx="280" cy="180" r="15" fill="rgba(255,255,255,0.25)"/>
  <circle cx="280" cy="220" r="15" fill="rgba(255,255,255,0.25)"/>
  <circle cx="520" cy="180" r="15" fill="rgba(255,255,255,0.25)"/>
  <circle cx="520" cy="220" r="15" fill="rgba(255,255,255,0.25)"/>
  
  <text x="400" y="350" font-family="Arial, sans-serif" font-size="56" fill="white" text-anchor="middle" font-weight="bold">AI in Enterprise</text>
  <text x="400" y="410" font-family="Arial, sans-serif" font-size="56" fill="white" text-anchor="middle" font-weight="bold">Software</text>
  <text x="400" y="465" font-family="Arial, sans-serif" font-size="26" fill="rgba(255,255,255,0.85)" text-anchor="middle">The Future of Development</text>
</svg>