<svg xmlns="http://www.w3.org/2000/svg" viewBox="0 0 800 500">
  <defs>
    <linearGradient id="mlBg" x1="0%" y1="0%" x2="100%" y2="100%">
      <stop offset="0%" style="stop-color:#1a1a2e"/>
      <stop offset="50%" style="stop-color:#16213e"/>
      <stop offset="100%" style="stop-color:#0f3460"/>
    </linearGradient>
    <linearGradient id="mlAccent" x1="0%" y1="0%" x2="100%" y2="0%">
      <stop offset="0%" style="stop-color:#e94560"/>
      <stop offset="100%" style="stop-color:#ff6b6b"/>
    </linearGradient>
  </defs>
  <rect width="800" height="500" fill="url(#mlBg)"/>
  <!-- Neural Network -->
  <g opacity="0.3">
    <circle cx="150" cy="150" r="20" fill="#e94560"/>
    <circle cx="150" cy="250" r="20" fill="#e94560"/>
    <circle cx="150" cy="350" r="20" fill="#e94560"/>
    <circle cx="300" cy="100" r="20" fill="#4ecdc4"/>
    <circle cx="300" cy="200" r="20" fill="#4ecdc4"/>
    <circle cx="300" cy="300" r="20" fill="#4ecdc4"/>
    <circle cx="300" cy="400" r="20" fill="#4ecdc4"/>
    <circle cx="450" cy="150" r="20" fill="#ffe66d"/>
    <circle cx="450" cy="250" r="20" fill="#ffe66d"/>
    <circle cx="450" cy="350" r="20" fill="#ffe66d"/>
    <line x1="170" y1="150" x2="280" y2="100" stroke="#fff" stroke-width="1" opacity="0.3"/>
    <line x1="170" y1="150" x2="280" y2="200" stroke="#fff" stroke-width="1" opacity="0.3"/>
    <line x1="170" y1="250" x2="280" y2="200" stroke="#fff" stroke-width="1" opacity="0.3"/>
    <line x1="170" y1="250" x2="280" y2="300" stroke="#fff" stroke-width="1" opacity="0.3"/>
    <line x1="170" y1="350" x2="280" y2="300" stroke="#fff" stroke-width="1" opacity="0.3"/>
    <line x1="170" y1="350" x2="280" y2="400" stroke="#fff" stroke-width="1" opacity="0.3"/>
    <line x1="320" y1="100" x2="430" y2="150" stroke="#fff" stroke-width="1" opacity="0.3"/>
    <line x1="320" y1="200" x2="430" y2="150" stroke="#fff" stroke-width="1" opacity="0.3"/>
    <line x1="320" y1="200" x2="430" y2="250" stroke="#fff" stroke-width="1" opacity="0.3"/>
    <line x1="320" y1="300" x2="430" y2="250" stroke="#fff" stroke-width="1" opacity="0.3"/>
    <line x1="320" y1="300" x2="430" y2="350" stroke="#fff" stroke-width="1" opacity="0.3"/>
    <line x1="320" y1="400" x2="430" y2="350" stroke="#fff" stroke-width="1" opacity="0.3"/>
  </g>
  <!-- Brain Icon -->
  <g transform="translate(500, 120)">
    <ellipse cx="100" cy="130" rx="90" ry="100" fill="none" stroke="url(#mlAccent)" stroke-width="4"/>
    <path d="M60 80 Q100 60 140 80" fill="none" stroke="#4ecdc4" stroke-width="3"/>
    <path d="M50 120 Q100 100 150 120" fill="none" stroke="#4ecdc4" stroke-width="3"/>
    <path d="M55 160 Q100 140 145 160" fill="none" stroke="#4ecdc4" stroke-width="3"/>
    <path d="M65 200 Q100 180 135 200" fill="none" stroke="#4ecdc4" stroke-width="3"/>
    <circle cx="70" cy="100" r="8" fill="#ffe66d"/>
    <circle cx="130" cy="100" r="8" fill="#ffe66d"/>
    <circle cx="100" cy="140" r="8" fill="#ffe66d"/>
    <circle cx="80" cy="180" r="6" fill="#ffe66d"/>
    <circle cx="120" cy="180" r="6" fill="#ffe66d"/>
  </g>
  <!-- Data Points -->
  <g opacity="0.5">
    <circle cx="700" cy="80" r="5" fill="#4ecdc4"/>
    <circle cx="720" cy="120" r="4" fill="#e94560"/>
    <circle cx="680" cy="140" r="6" fill="#ffe66d"/>
    <circle cx="740" cy="160" r="3" fill="#4ecdc4"/>
    <circle cx="690" cy="200" r="5" fill="#e94560"/>
  </g>
  <!-- Title -->
  <text x="400" y="420" font-family="Arial, sans-serif" font-size="28" font-weight="bold" fill="#ffffff" text-anchor="middle">Machine Learning</text>
  <text x="400" y="455" font-family="Arial, sans-serif" font-size="16" fill="#a0a0a0" text-anchor="middle">Transforming Business Operations</text>
</svg>