<svg xmlns="http://www.w3.org/2000/svg" viewBox="0 0 800 500">
  <defs>
    <linearGradient id="secBg" x1="0%" y1="0%" x2="100%" y2="100%">
      <stop offset="0%" style="stop-color:#0d0d0d"/>
      <stop offset="100%" style="stop-color:#1a1a2e"/>
    </linearGradient>
    <linearGradient id="secGrad" x1="0%" y1="0%" x2="0%" y2="100%">
      <stop offset="0%" style="stop-color:#00ff88"/>
      <stop offset="100%" style="stop-color:#00cc6a"/>
    </linearGradient>
  </defs>
  <rect width="800" height="500" fill="url(#secBg)"/>
  <!-- Shield -->
  <g transform="translate(300, 60)">
    <path d="M100 0 L180 30 L180 120 C180 180 100 220 100 220 C100 220 20 180 20 120 L20 30 Z" fill="none" stroke="url(#secGrad)" stroke-width="4"/>
    <path d="M100 20 L160 45 L160 115 C160 165 100 195 100 195 C100 195 40 165 40 115 L40 45 Z" fill="url(#secGrad)" opacity="0.2"/>
    <!-- Lock Icon -->
    <rect x="75" y="90" width="50" height="40" rx="5" fill="#00ff88"/>
    <path d="M85 90 L85 75 C85 60 115 60 115 75 L115 90" fill="none" stroke="#00ff88" stroke-width="6"/>
    <circle cx="100" cy="110" r="8" fill="#0d0d0d"/>
    <rect x="97" y="110" width="6" height="12" fill="#0d0d0d"/>
  </g>
  <!-- Binary Code Background -->
  <g opacity="0.1">
    <text x="50" y="100" font-family="monospace" font-size="12" fill="#00ff88">01001010 11010010 00101101</text>
    <text x="550" y="150" font-family="monospace" font-size="12" fill="#00ff88">10110101 01001011 11001010</text>
    <text x="100" y="350" font-family="monospace" font-size="12" fill="#00ff88">11001010 00110101 10101010</text>
    <text x="500" y="380" font-family="monospace" font-size="12" fill="#00ff88">01010101 11110000 00001111</text>
  </g>
  <!-- Security Features -->
  <g transform="translate(80, 180)">
    <rect x="0" y="0" width="150" height="100" rx="10" fill="#1e1e1e" stroke="#00ff88" stroke-width="1"/>
    <text x="75" y="25" font-family="Arial" font-size="11" fill="#00ff88" text-anchor="middle" font-weight="bold">🔐 Encryption</text>
    <text x="75" y="50" font-family="Arial" font-size="9" fill="#888" text-anchor="middle">AES-256</text>
    <text x="75" y="70" font-family="Arial" font-size="9" fill="#888" text-anchor="middle">TLS 1.3</text>
    <text x="75" y="90" font-family="Arial" font-size="9" fill="#888" text-anchor="middle">End-to-End</text>
  </g>
  <g transform="translate(570, 180)">
    <rect x="0" y="0" width="150" height="100" rx="10" fill="#1e1e1e" stroke="#00ff88" stroke-width="1"/>
    <text x="75" y="25" font-family="Arial" font-size="11" fill="#00ff88" text-anchor="middle" font-weight="bold">🛡️ Protection</text>
    <text x="75" y="50" font-family="Arial" font-size="9" fill="#888" text-anchor="middle">SQL Injection</text>
    <text x="75" y="70" font-family="Arial" font-size="9" fill="#888" text-anchor="middle">XSS Prevention</text>
    <text x="75" y="90" font-family="Arial" font-size="9" fill="#888" text-anchor="middle">CSRF Tokens</text>
  </g>
  <!-- Threat Detection -->
  <g transform="translate(250, 300)">
    <rect x="0" y="0" width="300" height="80" rx="10" fill="#1e1e1e" stroke="#ff4444" stroke-width="1"/>
    <text x="150" y="25" font-family="Arial" font-size="12" fill="#ff4444" text-anchor="middle" font-weight="bold">⚠️ Threat Detection</text>
    <rect x="20" y="40" width="260" height="8" rx="4" fill="#333"/>
    <rect x="20" y="40" width="200" height="8" rx="4" fill="#00ff88"/>
    <text x="150" y="65" font-family="Arial" font-size="10" fill="#888" text-anchor="middle">Security Score: 95/100</text>
  </g>
  <!-- Vulnerability Icons -->
  <g transform="translate(100, 320)">
    <circle cx="15" cy="15" r="12" fill="#4caf50"/>
    <text x="15" y="19" font-family="Arial" font-size="10" fill="#fff" text-anchor="middle">✓</text>
    <text x="35" y="19" font-family="Arial" font-size="10" fill="#888">Secure Coding</text>
  </g>
  <g transform="translate(580, 320)">
    <circle cx="15" cy="15" r="12" fill="#4caf50"/>
    <text x="15" y="19" font-family="Arial" font-size="10" fill="#fff" text-anchor="middle">✓</text>
    <text x="35" y="19" font-family="Arial" font-size="10" fill="#888">Pen Testing</text>
  </g>
  <!-- Title -->
  <text x="400" y="420" font-family="Arial, sans-serif" font-size="28" font-weight="bold" fill="#ffffff" text-anchor="middle">Cybersecurity Best Practices</text>
  <text x="400" y="455" font-family="Arial, sans-serif" font-size="16" fill="#00ff88" text-anchor="middle">For Software Development Teams</text>
</svg>