<svg xmlns="http://www.w3.org/2000/svg" width="800" height="500" viewBox="0 0 800 500">
  <defs>
    <linearGradient id="devopsGrad" x1="0%" y1="0%" x2="100%" y2="100%">
      <stop offset="0%" style="stop-color:#198754;stop-opacity:1" />
      <stop offset="100%" style="stop-color:#20c997;stop-opacity:1" />
    </linearGradient>
  </defs>
  <rect width="800" height="500" fill="url(#devopsGrad)"/>
  
  <!-- CI/CD Pipeline -->
  <rect x="100" y="200" width="100" height="80" rx="10" fill="rgba(255,255,255,0.3)"/>
  <text x="150" y="250" font-family="Arial, sans-serif" font-size="20" fill="white" text-anchor="middle">Code</text>
  
  <path d="M 210 240 L 270 240" stroke="rgba(255,255,255,0.5)" stroke-width="4"/>
  <polygon points="270,240 260,235 260,245" fill="rgba(255,255,255,0.5)"/>
  
  <rect x="280" y="200" width="100" height="80" rx="10" fill="rgba(255,255,255,0.3)"/>
  <text x="330" y="250" font-family="Arial, sans-serif" font-size="20" fill="white" text-anchor="middle">Build</text>
  
  <path d="M 390 240 L 450 240" stroke="rgba(255,255,255,0.5)" stroke-width="4"/>
  <polygon points="450,240 440,235 440,245" fill="rgba(255,255,255,0.5)"/>
  
  <rect x="460" y="200" width="100" height="80" rx="10" fill="rgba(255,255,255,0.3)"/>
  <text x="510" y="250" font-family="Arial, sans-serif" font-size="20" fill="white" text-anchor="middle">Test</text>
  
  <path d="M 570 240 L 630 240" stroke="rgba(255,255,255,0.5)" stroke-width="4"/>
  <polygon points="630,240 620,235 620,245" fill="rgba(255,255,255,0.5)"/>
  
  <rect x="640" y="200" width="100" height="80" rx="10" fill="rgba(255,255,255,0.3)"/>
  <text x="690" y="250" font-family="Arial, sans-serif" font-size="20" fill="white" text-anchor="middle">Deploy</text>
  
  <text x="400" y="400" font-family="Arial, sans-serif" font-size="48" fill="white" text-anchor="middle" font-weight="bold">CI/CD Pipeline</text>
  <text x="400" y="445" font-family="Arial, sans-serif" font-size="24" fill="rgba(255,255,255,0.9)" text-anchor="middle">DevOps Best Practices</text>
</svg>