<svg xmlns="http://www.w3.org/2000/svg" viewBox="0 0 800 500">
  <defs>
    <linearGradient id="reactBg" x1="0%" y1="0%" x2="100%" y2="100%">
      <stop offset="0%" style="stop-color:#20232a"/>
      <stop offset="100%" style="stop-color:#282c34"/>
    </linearGradient>
  </defs>
  <rect width="800" height="500" fill="url(#reactBg)"/>
  <!-- React Logo -->
  <g transform="translate(400, 200)">
    <ellipse cx="0" cy="0" rx="150" ry="55" fill="none" stroke="#61dafb" stroke-width="8" opacity="0.8"/>
    <ellipse cx="0" cy="0" rx="150" ry="55" fill="none" stroke="#61dafb" stroke-width="8" opacity="0.8" transform="rotate(60)"/>
    <ellipse cx="0" cy="0" rx="150" ry="55" fill="none" stroke="#61dafb" stroke-width="8" opacity="0.8" transform="rotate(120)"/>
    <circle cx="0" cy="0" r="30" fill="#61dafb"/>
  </g>
  <!-- Code Snippets -->
  <g transform="translate(50, 80)" opacity="0.6">
    <rect x="0" y="0" width="180" height="120" rx="8" fill="#1e1e1e" stroke="#61dafb" stroke-width="1"/>
    <text x="10" y="25" font-family="monospace" font-size="10" fill="#c586c0">const</text>
    <text x="45" y="25" font-family="monospace" font-size="10" fill="#9cdcfe"> App</text>
    <text x="70" y="25" font-family="monospace" font-size="10" fill="#fff"> = () =&gt; {</text>
    <text x="15" y="45" font-family="monospace" font-size="10" fill="#c586c0">return</text>
    <text x="55" y="45" font-family="monospace" font-size="10" fill="#fff"> (</text>
    <text x="20" y="65" font-family="monospace" font-size="10" fill="#808080">&lt;</text>
    <text x="30" y="65" font-family="monospace" font-size="10" fill="#4ec9b0">div</text>
    <text x="50" y="65" font-family="monospace" font-size="10" fill="#808080">&gt;</text>
    <text x="25" y="85" font-family="monospace" font-size="10" fill="#ce9178">Hello React!</text>
    <text x="20" y="105" font-family="monospace" font-size="10" fill="#808080">&lt;/</text>
    <text x="35" y="105" font-family="monospace" font-size="10" fill="#4ec9b0">div</text>
    <text x="55" y="105" font-family="monospace" font-size="10" fill="#808080">&gt;</text>
  </g>
  <g transform="translate(570, 280)" opacity="0.6">
    <rect x="0" y="0" width="180" height="100" rx="8" fill="#1e1e1e" stroke="#61dafb" stroke-width="1"/>
    <text x="10" y="25" font-family="monospace" font-size="10" fill="#c586c0">useState</text>
    <text x="70" y="25" font-family="monospace" font-size="10" fill="#fff">()</text>
    <text x="10" y="50" font-family="monospace" font-size="10" fill="#c586c0">useEffect</text>
    <text x="75" y="50" font-family="monospace" font-size="10" fill="#fff">()</text>
    <text x="10" y="75" font-family="monospace" font-size="10" fill="#c586c0">useMemo</text>
    <text x="65" y="75" font-family="monospace" font-size="10" fill="#fff">()</text>
  </g>
  <!-- Best Practices Icons -->
  <g transform="translate(620, 80)">
    <circle cx="30" cy="30" r="25" fill="none" stroke="#4caf50" stroke-width="3"/>
    <path d="M18 30 L26 38 L42 22" fill="none" stroke="#4caf50" stroke-width="3"/>
    <text x="30" y="70" font-family="Arial" font-size="10" fill="#4caf50" text-anchor="middle">Best</text>
    <text x="30" y="82" font-family="Arial" font-size="10" fill="#4caf50" text-anchor="middle">Practices</text>
  </g>
  <!-- Title -->
  <text x="400" y="420" font-family="Arial, sans-serif" font-size="28" font-weight="bold" fill="#ffffff" text-anchor="middle">React.js Best Practices</text>
  <text x="400" y="455" font-family="Arial, sans-serif" font-size="16" fill="#61dafb" text-anchor="middle">Every Developer Should Follow in 2025</text>
</svg>